<svg width="16" height="16" viewBox="0 0 1024 1024" fill="none" xmlns="http://www.w3.org/2000/svg">
<path d="M579.875 146.375C593.27 158.006 603.327 172.126 609 189C609.392 190.156 609.784 191.313 610.188 192.504C618.701 220.757 612.252 248.926 598.806 274.151C590.289 289.659 578.632 302.709 566 315C567.767 315.635 569.539 316.258 571.312 316.875C572.299 317.223 573.285 317.571 574.301 317.93C582.846 320.402 591.586 321.407 600.434 322.086C601.504 322.169 602.574 322.253 603.677 322.339C616.46 323.269 629.251 323.455 642.062 323.625C644.502 323.663 646.941 323.702 649.381 323.742C655.254 323.836 661.127 323.922 667 324C666.979 323.24 666.958 322.479 666.937 321.696C666.852 318.193 666.801 314.691 666.75 311.187C666.716 309.992 666.683 308.796 666.648 307.564C666.558 299.232 667.052 290.617 672.709 284.001C678.252 278.798 683.98 277.626 691.41 277.816C698.747 278.337 703.884 279.518 709 285C713.625 293.613 713.133 302.418 713.062 311.937C713.058 313.098 713.053 314.259 713.049 315.455C713.037 318.303 713.021 321.152 713 324C714.002 323.989 715.003 323.979 716.035 323.968C719.839 323.931 723.643 323.909 727.447 323.89C729.077 323.88 730.707 323.867 732.337 323.849C757.075 323.589 781.082 325.929 799.892 343.817C813.734 357.474 820.605 373.837 823 393C823 438.21 823 483.42 823 530C617.74 530 412.48 530 201 530C201 368.041 201 368.041 226.191 342.805C231.59 337.724 237.33 334.196 244 331C245.15 330.43 245.15 330.43 246.324 329.848C260.526 323.458 276.316 323.586 291.562 323.812C293.364 323.828 295.165 323.841 296.967 323.853C301.312 323.886 305.656 323.937 310 324C309.969 322.654 309.969 322.654 309.937 321.281C309.868 317.919 309.818 314.557 309.78 311.195C309.76 309.746 309.733 308.297 309.698 306.848C309.347 291.856 309.347 291.856 314 285C319.851 279.299 325.495 278.637 333.312 278.625C334.129 278.6 334.946 278.576 335.787 278.551C342.853 278.517 348.147 280.372 353.375 285.187C357.938 293.086 357.247 302.239 357.125 311.062C357.116 312.31 357.107 313.557 357.098 314.842C357.074 317.895 357.041 320.947 357 324C364.313 323.914 371.625 323.819 378.938 323.712C382.336 323.663 385.734 323.617 389.133 323.578C439.989 322.976 486.806 315.53 527 282C527.507 281.578 528.014 281.156 528.537 280.721C545.659 266.29 557.833 248.555 561 226C561.865 211.771 560.264 200.439 551 189C543.666 180.893 532.22 175.692 521.401 174.781C510.217 174.312 499.25 173.941 489 179C487.763 179.596 487.763 179.596 486.5 180.203C474.971 186.195 468.012 194.537 463.914 206.816C459.15 225.583 464.597 243.8 474 260C479.761 269.039 486.888 277.042 494.562 284.5C497 287 497 287 497 289C463.998 308.761 463.998 308.761 449 307C430.933 295.503 416.722 266.096 412.153 245.985C406.358 218.64 411.056 190.685 426 167C428.803 163.138 431.808 159.545 435 156C435.675 155.23 436.351 154.461 437.047 153.668C473.223 114.84 539.468 114.651 579.875 146.375Z" fill="#1D6AA8"/>
<path d="M248 530C422.57 530 597.14 530 777 530C777 771.579 777 771.579 762 787.812C745.237 803.49 724.404 803.469 702.809 803.398C700.606 803.4 698.404 803.403 696.201 803.407C691.618 803.412 687.036 803.405 682.453 803.391C676.589 803.374 670.725 803.384 664.861 803.402C660.327 803.413 655.793 803.409 651.259 803.401C649.096 803.399 646.934 803.402 644.771 803.409C641.754 803.417 638.737 803.405 635.72 803.388C634.836 803.394 633.951 803.4 633.039 803.407C627.034 803.345 621.977 802.563 617.258 798.5C614.264 794.536 612.886 791.748 612.842 786.811C612.827 785.548 612.827 785.548 612.811 784.259C612.8 782.895 612.8 782.895 612.789 781.504C612.761 779.563 612.732 777.622 612.703 775.682C612.662 772.634 612.625 769.587 612.599 766.539C613.159 746.527 613.159 746.527 605 729C599.52 725.21 595.592 724.391 589 724.562C587.848 724.552 587.848 724.552 586.672 724.541C580.194 724.613 575.482 726.038 570.312 730.125C563.543 738.542 562.835 747.922 562.886 758.344C562.886 759.148 562.886 759.951 562.886 760.78C562.887 763.353 562.894 765.927 562.902 768.5C562.904 770.1 562.905 771.701 562.905 773.301C562.911 779.201 562.925 785.1 562.937 791C562.968 810.8 562.968 810.8 563 831C529.67 831 496.34 831 462 831C462.021 822.894 462.041 814.789 462.062 806.438C462.082 783.123 462.082 783.123 461.687 759.812C461.665 758.625 461.643 757.438 461.619 756.215C461.326 747.16 460.097 738.085 454 731C446.422 725.25 439.462 723.966 430 725C422.494 727.464 418.108 731.007 414.426 737.983C412.383 742.85 412.596 747.698 412.629 752.902C412.612 755.031 412.594 757.159 412.576 759.287C412.566 762.616 412.562 765.944 412.564 769.273C412.561 772.504 412.533 775.734 412.504 778.965C412.512 779.952 412.52 780.938 412.529 781.955C412.463 788.072 411.647 792.953 408 798C403.71 801.415 400.212 803.119 394.747 803.14C393.88 803.146 393.012 803.152 392.119 803.158C390.695 803.159 390.695 803.159 389.243 803.161C388.241 803.166 387.239 803.171 386.206 803.176C382.881 803.191 379.556 803.198 376.23 803.203C373.914 803.209 371.598 803.215 369.282 803.22C364.415 803.231 359.548 803.237 354.682 803.24C348.476 803.246 342.271 803.27 336.065 803.298C331.274 803.317 326.482 803.322 321.691 803.324C319.405 803.327 317.12 803.335 314.834 803.348C294.922 803.455 277.409 802.854 262.254 788.363C202.726 725.947 248 616.252 248 530Z" fill="#CAEBF6"/>
<path d="M525.765 348.821C527.761 349.887 529.724 351.001 531.688 352.125C564.967 370.325 602.504 372.361 639.688 372.688C642.359 372.719 645.03 372.755 647.701 372.791C654.134 372.875 660.567 372.943 667 373C667.186 374.23 667.186 374.23 667.376 375.484C667.546 376.562 667.716 377.64 667.891 378.75C668.056 379.817 668.221 380.885 668.392 381.984C669.512 387.536 671.507 390.842 676.062 394.375C682.911 398.164 691.754 398.021 699.367 396.539C703.694 394.904 706.886 392.052 709 388C709.77 385.607 710.48 383.194 711.145 380.77C711.495 379.503 711.845 378.237 712.206 376.933C712.468 375.965 712.73 374.997 713 374C718.21 373.925 723.42 373.871 728.631 373.835C730.399 373.82 732.167 373.8 733.935 373.774C759.463 373.406 759.463 373.406 768.277 381.895C788.836 407.021 776 462.894 776 480C601.76 480 427.52 480 248 480C248 393.739 248 393.739 258 383C268.455 373.253 279.647 373.598 293.062 373.813C294.708 373.828 296.353 373.841 297.998 373.854C301.999 373.886 305.999 373.938 310 374C310.195 374.896 310.39 375.793 310.59 376.716C310.983 378.477 310.983 378.477 311.383 380.273C311.639 381.438 311.896 382.602 312.161 383.802C313.486 388.851 315.204 391.698 319.5 394.813C326.219 398.004 334.544 398.197 341.676 396.281C346.981 394.07 351.556 391.331 353.93 385.855C355.29 381.949 356.202 378.056 357 374C357.661 373.992 358.322 373.984 359.002 373.976C366.013 373.888 373.024 373.788 380.035 373.683C382.635 373.645 385.236 373.61 387.836 373.578C408.595 373.322 429.491 372.864 450 369.313C450.972 369.146 451.945 368.979 452.947 368.808C474.369 364.908 496.459 357.93 515.746 347.715C519.403 346.555 522.313 347.215 525.765 348.821Z" fill="#5EB6DC"/>
<path d="M579.875 146.375C593.27 158.006 603.327 172.126 609 189C609.392 190.156 609.784 191.313 610.188 192.504C618.701 220.757 612.252 248.926 598.806 274.151C591.967 286.604 583.209 297.271 573.421 307.512C572.471 308.507 571.526 309.507 570.587 310.512C562.808 318.819 554.391 325.59 545 332C544.431 332.393 543.861 332.786 543.274 333.19C495.722 365.752 440.443 374.506 384 374.125C381.363 374.115 378.727 374.106 376.09 374.098C369.726 374.076 363.363 374.043 357 374C356.936 374.621 356.872 375.242 356.807 375.882C356.721 376.696 356.634 377.509 356.545 378.347C356.461 379.154 356.377 379.96 356.29 380.792C355.679 385.448 353.79 389.288 350.391 392.539C342.901 398.206 335.142 398.704 326 398C321.006 397.051 317.121 395.057 314.031 390.871C310.828 385.059 310 379.584 310 373C300.1 373 290.2 373 280 373C280 372.67 280 372.34 280 372C289.9 372 299.8 372 310 372C310 356.49 310 340.98 310 325C299.11 325 288.22 325 277 325C277 324.67 277 324.34 277 324C287.89 324 298.78 324 310 324C309.842 314.158 309.842 314.158 309.64 304.316C309.58 296.913 309.718 291.309 314 285C319.851 279.299 325.495 278.637 333.312 278.625C334.129 278.6 334.946 278.576 335.787 278.551C342.853 278.517 348.147 280.372 353.375 285.187C357.938 293.086 357.247 302.239 357.125 311.062C357.116 312.31 357.107 313.557 357.098 314.842C357.074 317.895 357.041 320.947 357 324C364.313 323.914 371.625 323.819 378.938 323.712C382.336 323.663 385.734 323.617 389.133 323.578C439.989 322.976 486.806 315.53 527 282C527.507 281.578 528.014 281.156 528.537 280.721C545.659 266.29 557.833 248.555 561 226C561.865 211.771 560.264 200.439 551 189C543.666 180.893 532.22 175.692 521.401 174.781C510.217 174.312 499.25 173.941 489 179C488.175 179.397 487.35 179.794 486.5 180.203C474.971 186.195 468.012 194.537 463.914 206.816C459.15 225.583 464.597 243.8 474 260C479.761 269.039 486.888 277.042 494.562 284.5C497 287 497 287 497 289C463.998 308.761 463.998 308.761 449 307C430.933 295.503 416.722 266.096 412.153 245.985C406.358 218.64 411.056 190.685 426 167C428.803 163.138 431.808 159.545 435 156C435.675 155.23 436.351 154.461 437.047 153.668C473.223 114.84 539.468 114.651 579.875 146.375Z" fill="#10528B"/>
<path d="M200 530C215.84 530 231.68 530 248 530C248.015 536.707 248.029 543.414 248.044 550.324C248.095 572.497 248.161 594.669 248.236 616.841C248.245 619.52 248.254 622.2 248.262 624.879C248.265 625.545 248.267 626.211 248.269 626.897C248.304 637.654 248.329 648.41 248.35 659.167C248.372 670.22 248.406 681.273 248.449 692.325C248.473 698.527 248.491 704.728 248.498 710.93C248.504 716.777 248.524 722.623 248.554 728.469C248.563 730.606 248.567 732.743 248.565 734.88C248.554 754.26 249.311 774.101 263.621 788.812C275.27 799.524 288.891 802.133 304.306 802.177C305.319 802.184 306.331 802.19 307.374 802.197C310.706 802.217 314.039 802.228 317.371 802.238C318.513 802.242 319.655 802.246 320.832 802.251C326.871 802.271 332.91 802.286 338.949 802.295C345.178 802.306 351.406 802.341 357.635 802.38C362.435 802.406 367.234 802.415 372.034 802.418C374.33 802.423 376.627 802.435 378.923 802.453C382.137 802.478 385.35 802.477 388.564 802.47C389.506 802.483 390.448 802.496 391.419 802.509C397.323 802.462 402.168 801.589 407 798C411.518 792.228 411.538 786.147 411.434 779.07C411.443 776.954 411.453 774.839 411.463 772.723C411.454 769.423 411.437 766.123 411.415 762.823C411.401 759.613 411.416 756.405 411.434 753.195C411.409 751.735 411.409 751.735 411.384 750.246C411.438 742.691 413.366 736.183 418.407 730.38C424.676 724.753 430.758 723.411 438.934 723.656C445.475 724.39 450.934 726.4 455.438 731.312C468.25 748.214 463.144 779.817 463.286 800.036C463.304 802.164 463.328 804.293 463.359 806.422C463.74 833.698 463.74 833.698 453.543 844.551C445.789 851.869 436.085 854.106 425.66 854.147C424.406 854.154 423.152 854.161 421.86 854.169C420.482 854.172 419.105 854.174 417.727 854.177C416.266 854.183 414.805 854.19 413.344 854.197C408.556 854.218 403.768 854.228 398.98 854.238C397.325 854.242 395.669 854.246 394.013 854.251C386.226 854.27 378.438 854.284 370.651 854.292C361.702 854.302 352.753 854.328 343.803 854.369C336.862 854.399 329.921 854.414 322.979 854.417C318.846 854.419 314.712 854.428 310.579 854.453C278.471 854.64 251.079 850.305 227 827C209.257 808.411 200.869 784.238 200.842 758.844C200.837 757.861 200.832 756.877 200.827 755.864C200.812 752.589 200.803 749.314 200.795 746.039C200.785 743.683 200.775 741.327 200.765 738.971C200.738 732.589 200.717 726.208 200.697 719.826C200.677 713.829 200.653 707.831 200.629 701.833C200.581 689.958 200.538 678.084 200.497 666.209C200.458 654.679 200.416 643.148 200.372 631.617C200.37 630.906 200.367 630.194 200.364 629.461C200.35 625.892 200.337 622.322 200.323 618.752C200.209 589.168 200.103 559.584 200 530Z" fill="#FE5448"/>
<path d="M777 530C792.18 530 807.36 530 823 530C823.066 560.846 823.122 591.692 823.153 622.538C823.157 626.185 823.161 629.832 823.165 633.479C823.166 634.205 823.166 634.931 823.167 635.679C823.18 647.413 823.204 659.147 823.231 670.88C823.26 682.933 823.276 694.986 823.282 707.039C823.286 713.803 823.295 720.568 823.317 727.332C823.338 733.706 823.344 740.08 823.339 746.455C823.34 748.787 823.346 751.119 823.358 753.452C823.414 765.365 823.321 776.467 820 788C819.72 789.05 819.72 789.05 819.434 790.121C812.901 813.197 796.009 831.547 775.467 843.199C759.331 851.942 742.772 854.142 724.69 854.177C723.262 854.183 721.833 854.19 720.405 854.197C715.744 854.218 711.083 854.228 706.422 854.238C704.808 854.242 703.195 854.246 701.582 854.251C694 854.27 686.419 854.284 678.837 854.292C670.122 854.302 661.407 854.328 652.691 854.369C645.929 854.399 639.167 854.414 632.405 854.417C628.378 854.419 624.35 854.428 620.323 854.453C616.531 854.477 612.739 854.481 608.947 854.471C606.913 854.47 604.88 854.489 602.846 854.509C591.353 854.445 579.757 852.562 571.234 844.285C561.786 834.261 561.419 824.398 561.539 811.227C561.541 809.495 561.542 807.763 561.542 806.031C561.545 802.411 561.561 798.792 561.588 795.173C561.622 790.561 561.63 785.95 561.628 781.338C561.629 777.764 561.64 774.19 561.654 770.616C561.661 768.917 561.665 767.217 561.666 765.518C561.714 739.418 561.714 739.418 568 731C575.855 723.598 583.274 723.463 593.621 723.664C598.836 723.93 602.413 725.09 606 729C612.905 737.089 613.284 747.187 613.309 757.391C613.334 759.336 613.359 761.281 613.385 763.227C613.414 766.25 613.438 769.274 613.456 772.298C613.478 775.246 613.517 778.193 613.559 781.141C613.559 782.041 613.559 782.941 613.559 783.868C613.639 788.989 614.152 792.568 617 797C621.206 800.99 624.486 802.117 630.17 802.14C630.994 802.146 631.817 802.152 632.666 802.158C633.562 802.159 634.457 802.16 635.38 802.161C636.33 802.166 637.28 802.171 638.259 802.176C641.407 802.191 644.555 802.198 647.703 802.203C649.901 802.209 652.099 802.215 654.297 802.22C658.914 802.231 663.531 802.237 668.147 802.24C674.024 802.246 679.901 802.27 685.778 802.298C690.325 802.317 694.872 802.322 699.419 802.324C701.583 802.327 703.747 802.335 705.911 802.348C726.114 802.462 745.822 801.867 761.5 787.312C775.948 771.538 776.6 750.819 776.546 730.599C776.555 728.4 776.565 726.2 776.577 724.001C776.605 718.083 776.608 712.164 776.607 706.246C776.611 700.041 776.636 693.837 776.659 687.632C776.7 675.907 776.72 664.181 776.733 652.455C776.745 643.084 776.765 633.713 776.792 624.342C776.794 623.68 776.796 623.019 776.798 622.337C776.808 619.017 776.818 615.697 776.828 612.378C776.91 584.918 776.961 557.459 777 530Z" fill="#FE5448"/>
<path d="M704.789 281C708.679 283.913 710.636 287.443 712 292C712.4 294.984 712.411 297.922 712.388 300.929C712.396 302.228 712.396 302.228 712.404 303.554C712.417 306.399 712.409 309.244 712.398 312.09C712.4 314.078 712.403 316.067 712.407 318.056C712.412 322.218 712.405 326.379 712.391 330.541C712.374 335.861 712.384 341.181 712.402 346.502C712.413 350.607 712.409 354.712 712.401 358.817C712.399 360.778 712.402 362.739 712.409 364.7C712.417 367.448 712.405 370.194 712.388 372.941C712.394 373.743 712.4 374.545 712.407 375.371C712.336 381.655 711.244 387.314 707.098 392.277C706.09 393.099 706.09 393.099 705.062 393.937C704.393 394.503 703.724 395.069 703.035 395.652C697.086 399.592 688.845 398.512 682 398C676.037 396.424 672.367 393.051 669 388C666.979 382.803 666.938 378.469 667 373C666.333 373.007 665.667 373.013 664.98 373.02C657.888 373.088 650.795 373.132 643.703 373.165C641.074 373.178 638.446 373.2 635.817 373.226C594.034 373.634 556.679 367.525 520 347C523.078 344.515 526.363 342.592 529.787 340.638C539.076 335.336 547.531 329.532 555.781 322.695C556.658 321.971 557.534 321.246 558.438 320.5C559.199 319.85 559.961 319.201 560.746 318.531C563.285 316.807 564.95 316.243 568 316C570.289 316.488 570.289 316.488 572.625 317.312C581.561 320.439 591.046 321.366 600.434 322.086C601.504 322.17 602.574 322.253 603.677 322.339C616.46 323.269 629.251 323.455 642.062 323.625C644.502 323.663 646.941 323.702 649.381 323.742C655.254 323.836 661.127 323.922 667 324C666.979 323.24 666.958 322.479 666.937 321.696C666.852 318.193 666.801 314.691 666.75 311.187C666.716 309.992 666.683 308.796 666.648 307.564C666.558 299.232 667.052 290.617 672.709 284.001C680.892 276.32 695.009 275.533 704.789 281Z" fill="#1D6AA8"/>
<path d="M704.789 281C708.679 283.913 710.636 287.443 712 292C712.4 294.984 712.411 297.922 712.388 300.929C712.393 301.795 712.399 302.661 712.404 303.554C712.417 306.399 712.409 309.244 712.398 312.09C712.4 314.078 712.403 316.067 712.407 318.056C712.412 322.218 712.405 326.379 712.391 330.541C712.374 335.861 712.384 341.181 712.402 346.502C712.413 350.607 712.409 354.712 712.401 358.817C712.399 360.778 712.402 362.739 712.409 364.7C712.417 367.448 712.405 370.194 712.388 372.941C712.394 373.743 712.4 374.545 712.407 375.371C712.336 381.655 711.244 387.314 707.098 392.277C706.09 393.099 706.09 393.099 705.062 393.937C704.393 394.503 703.724 395.069 703.035 395.652C697.086 399.592 688.845 398.512 682 398C676.037 396.424 672.367 393.051 669 388C666.869 382.521 667 379.197 667 373C652.81 373 638.62 373 624 373C624 372.67 624 372.34 624 372C638.19 372 652.38 372 667 372C667 356.49 667 340.98 667 325C647.2 325 627.4 325 607 325C607 324.67 607 324.34 607 324C626.8 324 646.6 324 667 324C667 315.09 667 306.18 667 297C672.14 282.865 672.14 282.865 680.812 278.625C688.523 277.113 697.756 277.069 704.789 281Z" fill="#0F528B"/>
</svg>