<svg xmlns="http://www.w3.org/2000/svg" width="200" height="60" fill="none" viewBox="0 0 1024 1024">
    <path fill="#1d6aa8" d="M579.875 146.375C593.27 158.006 603.327 172.126 609 189l1.188 3.504c8.513 28.253 2.064 56.422-11.382 81.647C590.289 289.659 578.632 302.709 566 315q2.651.951 5.312 1.875l2.989 1.055c8.545 2.472 17.285 3.477 26.133 4.156l3.243.253c12.783.93 25.574 1.116 38.385 1.286q3.66.057 7.319.117 8.81.141 17.619.258l-.063-2.304a1083 1083 0 0 1-.187-10.509l-.102-3.623c-.09-8.332.404-16.947 6.061-23.563 5.543-5.203 11.271-6.375 18.701-6.185 7.337.521 12.474 1.702 17.59 7.184 4.625 8.613 4.133 17.418 4.062 26.937l-.013 3.518A2705 2705 0 0 1 713 324l3.035-.032c3.804-.037 7.608-.059 11.412-.078q2.445-.014 4.89-.041c24.738-.26 48.745 2.08 67.555 19.968C813.734 357.474 820.605 373.837 823 393v137H201c0-161.959 0-161.959 25.191-187.195C231.59 337.724 237.33 334.196 244 331l2.324-1.152c14.202-6.39 29.992-6.262 45.238-6.036q2.703.024 5.405.041 6.517.051 13.033.147l-.063-2.719q-.102-5.043-.157-10.086-.03-2.174-.082-4.347c-.351-14.992-.351-14.992 4.302-21.848 5.851-5.701 11.495-6.363 19.312-6.375l2.475-.074c7.066-.034 12.36 1.821 17.588 6.636 4.563 7.899 3.872 17.052 3.75 25.875l-.027 3.78q-.036 4.579-.098 9.158 10.969-.128 21.938-.288 5.097-.075 10.195-.134C439.989 322.976 486.806 315.53 527 282l1.537-1.279C545.659 266.29 557.833 248.555 561 226c.865-14.229-.736-25.561-10-37-7.334-8.107-18.78-13.308-29.599-14.219-11.184-.469-22.151-.84-32.401 4.219l-2.5 1.203c-11.529 5.992-18.488 14.334-22.586 26.613C459.15 225.583 464.597 243.8 474 260c5.761 9.039 12.888 17.042 20.562 24.5C497 287 497 287 497 289c-33.002 19.761-33.002 19.761-48 18-18.067-11.497-32.278-40.904-36.847-61.015-5.795-27.345-1.097-55.3 13.847-78.985 2.803-3.862 5.808-7.455 9-11l2.047-2.332c36.176-38.828 102.421-39.017 142.828-7.293"/>
    <path fill="#caebf6" d="M248 530h529c0 241.579 0 241.579-15 257.812-16.763 15.678-37.596 15.657-59.191 15.586q-3.304.003-6.608.009-6.874.006-13.748-.016c-5.864-.017-11.728-.007-17.592.011-4.534.011-9.068.007-13.602-.001q-3.244-.003-6.488.008c-3.017.008-6.034-.004-9.051-.021l-2.681.019c-6.005-.062-11.062-.844-15.781-4.907-2.994-3.964-4.372-6.752-4.416-11.689l-.031-2.552-.022-2.755-.086-5.822q-.063-4.572-.104-9.143c.56-20.012.56-20.012-7.599-37.539-5.48-3.79-9.408-4.609-16-4.438l-2.328-.021c-6.478.072-11.19 1.497-16.36 5.584-6.769 8.417-7.477 17.797-7.426 28.219v2.436q.003 3.86.016 7.72.003 2.4.003 4.801c.006 5.9.02 11.799.032 17.699l.063 40H462l.062-24.562c.02-23.315.02-23.315-.375-46.626l-.068-3.597c-.293-9.055-1.522-18.13-7.619-25.215-7.578-5.75-14.538-7.034-24-6-7.506 2.464-11.892 6.007-15.574 12.983-2.043 4.867-1.83 9.715-1.797 14.919l-.053 6.385q-.015 4.993-.012 9.986c-.003 3.231-.031 6.461-.06 9.692l.025 2.99c-.066 6.117-.882 10.998-4.529 16.045-4.29 3.415-7.788 5.119-13.253 5.14l-2.628.018-2.876.003-3.037.015q-4.987.021-9.976.027l-6.948.017q-7.3.016-14.6.02c-6.206.006-12.411.03-18.617.058-4.791.019-9.583.024-14.374.026q-3.429.004-6.857.024c-19.912.107-37.425-.494-52.58-14.985C202.726 725.947 248 616.252 248 530"/>
    <path fill="#5eb6dc" d="M525.765 348.821a232 232 0 0 1 5.923 3.304c33.279 18.2 70.816 20.236 108 20.563q4.007.048 8.013.103 9.65.125 19.299.209l.376 2.484.515 3.266.501 3.234c1.12 5.552 3.115 8.858 7.67 12.391 6.849 3.789 15.692 3.646 23.305 2.164 4.327-1.635 7.519-4.487 9.633-8.539.77-2.393 1.48-4.806 2.145-7.23l1.061-3.837L713 374q7.815-.112 15.631-.165 2.652-.022 5.304-.061c25.528-.368 25.528-.368 34.342 8.121C788.836 407.021 776 462.894 776 480H248c0-86.261 0-86.261 10-97 10.455-9.747 21.647-9.402 35.062-9.187q2.469.022 4.936.041c4.001.032 8.001.084 12.002.146l.59 2.716.793 3.557.778 3.529c1.325 5.049 3.043 7.896 7.339 11.011 6.719 3.191 15.044 3.384 22.176 1.468 5.305-2.211 9.88-4.95 12.254-10.426 1.36-3.906 2.272-7.799 3.07-11.855l2.002-.024q10.517-.134 21.033-.293 3.9-.057 7.801-.105c20.759-.256 41.655-.714 62.164-4.265l2.947-.505c21.422-3.9 43.512-10.878 62.799-21.093 3.657-1.16 6.567-.5 10.019 1.106"/>
    <path fill="#10528b" d="M579.875 146.375C593.27 158.006 603.327 172.126 609 189l1.188 3.504c8.513 28.253 2.064 56.422-11.382 81.647-6.839 12.453-15.597 23.12-25.385 33.361q-1.425 1.493-2.834 3C562.808 318.819 554.391 325.59 545 332l-1.726 1.19C495.722 365.752 440.443 374.506 384 374.125q-3.955-.015-7.91-.027-9.546-.033-19.09-.098l-.193 1.882-.262 2.465-.255 2.445c-.611 4.656-2.5 8.496-5.899 11.747-7.49 5.667-15.249 6.165-24.391 5.461-4.994-.949-8.879-2.943-11.969-7.129C310.828 385.059 310 379.584 310 373h-30v-1h30v-47h-33v-1h33c-.158-9.842-.158-9.842-.36-19.684-.06-7.403.078-13.007 4.36-19.316 5.851-5.701 11.495-6.363 19.312-6.375l2.475-.074c7.066-.034 12.36 1.821 17.588 6.636 4.563 7.899 3.872 17.052 3.75 25.875l-.027 3.78q-.036 4.579-.098 9.158 10.969-.128 21.938-.288 5.097-.075 10.195-.134C439.989 322.976 486.806 315.53 527 282l1.537-1.279C545.659 266.29 557.833 248.555 561 226c.865-14.229-.736-25.561-10-37-7.334-8.107-18.78-13.308-29.599-14.219-11.184-.469-22.151-.84-32.401 4.219l-2.5 1.203c-11.529 5.992-18.488 14.334-22.586 26.613C459.15 225.583 464.597 243.8 474 260c5.761 9.039 12.888 17.042 20.562 24.5C497 287 497 287 497 289c-33.002 19.761-33.002 19.761-48 18-18.067-11.497-32.278-40.904-36.847-61.015-5.795-27.345-1.097-55.3 13.847-78.985 2.803-3.862 5.808-7.455 9-11l2.047-2.332c36.176-38.828 102.421-39.017 142.828-7.293"/>
    <path fill="#fe5448" d="M200 530h48l.044 20.324a61445 61445 0 0 0 .225 76.573q.051 16.135.081 32.27.034 16.58.099 33.158.037 9.303.049 18.605.01 8.77.056 17.539.014 3.206.011 6.411c-.011 19.38.746 39.221 15.056 53.932 11.649 10.712 25.27 13.321 40.685 13.365l3.068.02c3.332.02 6.665.031 9.997.041l3.461.013q9.058.03 18.117.044c6.229.011 12.457.046 18.686.085 4.8.026 9.599.035 14.399.038q3.445.008 6.889.035c3.214.025 6.427.024 9.641.017l2.855.039c5.904-.047 10.749-.92 15.581-4.509 4.518-5.772 4.538-11.853 4.434-18.93l.029-6.347q-.014-4.95-.048-9.9c-.014-3.21.001-6.418.019-9.628l-.05-2.949c.054-7.555 1.982-14.063 7.023-19.866 6.269-5.627 12.351-6.969 20.527-6.724 6.541.734 12 2.744 16.504 7.656 12.812 16.902 7.706 48.505 7.848 68.724q.027 3.192.073 6.386c.381 27.276.381 27.276-9.816 38.129-7.754 7.318-17.458 9.555-27.883 9.596l-3.8.022-4.133.008-4.383.02c-4.788.021-9.576.031-14.364.041l-4.967.013q-11.681.029-23.362.041-13.423.015-26.848.077-10.411.044-20.824.048c-4.133.002-8.267.011-12.4.036-32.108.187-59.5-4.148-83.579-27.453-17.743-18.589-26.131-42.762-26.158-68.156l-.015-2.98q-.021-4.912-.032-9.825l-.03-7.068q-.04-9.572-.068-19.145-.031-8.996-.068-17.993a60433 60433 0 0 1-.132-35.624q-.059-17.295-.125-34.592l-.008-2.156-.041-10.709q-.17-44.376-.323-88.752M777 530h46c.066 30.846.122 61.692.153 92.538l.012 10.941.002 2.2c.013 11.734.037 23.468.064 35.201q.043 18.08.051 36.159.004 10.147.035 20.293.03 9.56.022 19.123.001 3.498.019 6.997c.056 11.913-.037 23.015-3.358 34.548l-.566 2.121c-6.533 23.076-23.425 41.426-43.967 53.078-16.136 8.743-32.695 10.943-50.777 10.978l-4.285.02c-4.661.021-9.322.031-13.983.041l-4.84.013q-11.372.029-22.745.041-13.072.015-26.146.077-10.143.044-20.286.048c-4.027.002-8.055.011-12.082.036q-5.688.035-11.376.018c-2.034-.001-4.067.018-6.101.038-11.493-.064-23.089-1.947-31.612-10.224-9.448-10.024-9.815-19.887-9.695-33.058l.003-5.196q.005-5.43.046-10.858c.034-4.612.042-9.223.04-13.835q.003-5.361.026-10.722.01-2.549.012-5.098c.048-26.1.048-26.1 6.334-34.518 7.855-7.402 15.274-7.537 25.621-7.336 5.215.266 8.792 1.426 12.379 5.336 6.905 8.089 7.284 18.187 7.309 28.391l.076 5.836q.044 4.535.071 9.071c.022 2.948.061 5.895.103 8.843v2.727c.08 5.121.593 8.7 3.441 13.132 4.206 3.99 7.486 5.117 13.17 5.14l2.496.018 2.714.003 2.879.015q4.722.021 9.444.027l6.594.017q6.926.016 13.85.02c5.877.006 11.754.03 17.631.058 4.547.019 9.094.024 13.641.026q3.246.004 6.492.024c20.203.114 39.911-.481 55.589-15.036 14.448-15.774 15.1-36.493 15.046-56.713q.013-3.299.031-6.598c.028-5.918.031-11.837.03-17.755.004-6.205.029-12.409.052-18.614.041-11.725.061-23.451.074-35.177q.018-14.057.059-28.113l.006-2.005.03-9.959c.082-27.46.133-54.919.172-82.378"/>
    <path fill="#1d6aa8" d="M704.789 281c3.89 2.913 5.847 6.443 7.211 11 .4 2.984.411 5.922.388 8.929l.016 2.625c.013 2.845.005 5.69-.006 8.536l.009 5.966q.006 6.243-.016 12.485c-.017 5.32-.007 10.64.011 15.961.011 4.105.007 8.21-.001 12.315q-.003 2.942.008 5.883c.008 2.748-.004 5.494-.021 8.241l.019 2.43c-.071 6.284-1.163 11.943-5.309 16.906l-2.036 1.66-2.027 1.715c-5.949 3.94-14.19 2.86-21.035 2.348-5.963-1.576-9.633-4.949-13-10-2.021-5.197-2.062-9.531-2-15l-2.02.02c-7.092.068-14.185.112-21.277.145q-3.943.02-7.886.061c-41.783.408-79.138-5.701-115.817-26.226 3.078-2.485 6.363-4.408 9.787-6.362 9.289-5.302 17.744-11.106 25.994-17.943l2.657-2.195 2.308-1.969c2.539-1.724 4.204-2.288 7.254-2.531 2.289.488 2.289.488 4.625 1.312 8.936 3.127 18.421 4.054 27.809 4.774l3.243.253c12.783.93 25.574 1.116 38.385 1.286q3.66.057 7.319.117 8.81.141 17.619.258l-.063-2.304a1083 1083 0 0 1-.187-10.509l-.102-3.623c-.09-8.332.404-16.947 6.061-23.563 8.183-7.681 22.3-8.468 32.08-3.001"/>
    <path fill="#0f528b" d="M704.789 281c3.89 2.913 5.847 6.443 7.211 11 .4 2.984.411 5.922.388 8.929l.016 2.625c.013 2.845.005 5.69-.006 8.536l.009 5.966q.006 6.243-.016 12.485c-.017 5.32-.007 10.64.011 15.961.011 4.105.007 8.21-.001 12.315q-.003 2.942.008 5.883c.008 2.748-.004 5.494-.021 8.241l.019 2.43c-.071 6.284-1.163 11.943-5.309 16.906l-2.036 1.66-2.027 1.715c-5.949 3.94-14.19 2.86-21.035 2.348-5.963-1.576-9.633-4.949-13-10-2.131-5.479-2-8.803-2-15h-43v-1h43v-47h-60v-1h60v-27c5.14-14.135 5.14-14.135 13.812-18.375 7.711-1.512 16.944-1.556 23.977 2.375"/>
</svg>
